<svg width="30" height="25" viewBox="0 0 30 25" fill="none" xmlns="http://www.w3.org/2000/svg">
<path d="M2.49971 24.5379C2.04125 24.5379 1.59163 24.4004 1.20002 24.1404C0.808413 23.8804 0.489898 23.508 0.279316 23.0639C0.0687336 22.6198 -0.025806 22.1211 0.0060387 21.6223C0.0378834 21.1235 0.194886 20.6439 0.459873 20.2359L12.8664 1.15218C13.0962 0.797684 13.4004 0.508183 13.7535 0.307768C14.1067 0.107352 14.4986 0.00182205 14.8967 -4.62742e-05C15.2948 -0.00191267 15.6876 0.0999388 16.0423 0.297036C16.397 0.494131 16.7034 0.780769 16.936 1.1331L29.5275 20.2168C29.7968 20.6239 29.9578 21.1042 29.9927 21.6048C30.0276 22.1053 29.9352 22.6066 29.7255 23.0535C29.5159 23.5004 29.1971 23.8754 28.8045 24.1374C28.4118 24.3993 27.9605 24.5379 27.5002 24.5379H2.49971Z" fill="#BF1C0D"/>
</svg>
